<svg width="38" height="56" viewBox="0 0 38 56" fill="none" xmlns="http://www.w3.org/2000/svg">
<path fill-rule="evenodd" clip-rule="evenodd" d="M21.8883 7.22354H5.44434V0.00151825H21.8883V7.22354Z" fill="white"/>
<path fill-rule="evenodd" clip-rule="evenodd" d="M5.11093 10.0012L10.5552 4.55692L10.6338 4.63548L5.18949 10.0798L5.11093 10.0012Z" fill="white"/>
<path fill-rule="evenodd" clip-rule="evenodd" d="M37.11 15.0011L32.1101 10.0013L27.083 15.0284L32.0829 20.0283L37.11 15.0011Z" fill="white"/>
<path fill-rule="evenodd" clip-rule="evenodd" d="M21.9994 9.77905L16.5551 4.33476L16.4766 4.41332L21.9209 9.85762L21.9994 9.77905Z" fill="white"/>
<path fill-rule="evenodd" clip-rule="evenodd" d="M32.0775 20.0009L26.6333 14.5566L26.5547 14.6352L31.999 20.0795L32.0775 20.0009Z" fill="white"/>
<path fill-rule="evenodd" clip-rule="evenodd" d="M-0.000343323 34.1117L-0.000343323 5.2236H7.22168L7.22168 34.1117H-0.000343323Z" fill="white"/>
<path fill-rule="evenodd" clip-rule="evenodd" d="M24.222 10.1124V5.2236H27.333V10.1124H24.222Z" fill="white"/>
<path fill-rule="evenodd" clip-rule="evenodd" d="M32.1107 10.1124H27.333V10.0012H32.1107V10.1124Z" fill="white"/>
<path fill-rule="evenodd" clip-rule="evenodd" d="M21.8883 39.556H5.44434V32.3339H21.8883V39.556Z" fill="white"/>
<path fill-rule="evenodd" clip-rule="evenodd" d="M5.44464 39.556L0.000345612 34.1117L4.95508 29.157L10.3994 34.6013L5.44464 39.556Z" fill="white"/>
<path fill-rule="evenodd" clip-rule="evenodd" d="M8.11131 32.3339L7.22245 31.4451L7.30078 31.3667L8.18965 32.2556L8.11131 32.3339Z" fill="white"/>
<path fill-rule="evenodd" clip-rule="evenodd" d="M33.5549 38.1116V15.0011H37.1104V38.1116H33.5549Z" fill="white"/>
<path fill-rule="evenodd" clip-rule="evenodd" d="M21.8885 39.556H18.333V39.4449H21.8885V39.556Z" fill="white"/>
<path fill-rule="evenodd" clip-rule="evenodd" d="M27.3327 34.1117L21.8884 39.556L16.9297 34.5972L22.374 29.1529L27.3327 34.1117Z" fill="white"/>
<path fill-rule="evenodd" clip-rule="evenodd" d="M20.1105 31.4451L19.227 32.3286L19.1484 32.25L20.0319 31.3665L20.1105 31.4451Z" fill="white"/>
<path fill-rule="evenodd" clip-rule="evenodd" d="M27.3324 19.7787V34.1117H20.1104V19.7787H27.3324Z" fill="white"/>
<path fill-rule="evenodd" clip-rule="evenodd" d="M19.9997 19.7788H27.2217V19.8899H19.9997V19.7788Z" fill="white"/>
<path fill-rule="evenodd" clip-rule="evenodd" d="M19.9992 31.4451V19.8899H20.1104V31.4451H19.9992Z" fill="white"/>
<path fill-rule="evenodd" clip-rule="evenodd" d="M21.8882 48.4446L13.7773 48.4446L13.7773 48.3335L21.8882 48.3335L21.8882 48.4446Z" fill="white"/>
<path fill-rule="evenodd" clip-rule="evenodd" d="M13.7775 48.4446L10.222 39.556L10.3252 39.5147L13.8807 48.4034L13.7775 48.4446Z" fill="white"/>
<path fill-rule="evenodd" clip-rule="evenodd" d="M13.7774 48.4447L10.2219 39.556L17.248 36.7456L20.8035 45.6342L13.7774 48.4447Z" fill="white"/>
<path fill-rule="evenodd" clip-rule="evenodd" d="M37.9996 56L29.8887 56L29.8887 55.8889L37.9996 55.8889L37.9996 56Z" fill="white"/>
<path fill-rule="evenodd" clip-rule="evenodd" d="M36.8123 53.1644L30.924 38.4437L24.0088 41.2098L29.8971 55.9305L36.8123 53.1644Z" fill="white"/>
<path fill-rule="evenodd" clip-rule="evenodd" d="M17.1111 16.89L17.1111 29.2229L17 29.2229L17 16.89L17.1111 16.89Z" fill="white"/>
<path fill-rule="evenodd" clip-rule="evenodd" d="M19.2221 7.11244H8.11133V7.00133H19.2221V7.11244Z" fill="white"/>
<path fill-rule="evenodd" clip-rule="evenodd" d="M19.9997 10.1124V7.89021H27.2217V10.1124H19.9997Z" fill="white"/>
<path fill-rule="evenodd" clip-rule="evenodd" d="M7.2219 31.4451L7.2219 7.89021H7.33301L7.33301 31.4451H7.2219Z" fill="white"/>
<path fill-rule="evenodd" clip-rule="evenodd" d="M19.2221 32.334H8.11133V32.2229H19.2221V32.334Z" fill="white"/>
<path fill-rule="evenodd" clip-rule="evenodd" d="M32.1107 16.8899H17V10.1123H32.1107V16.8899Z" fill="white"/>
<path fill-rule="evenodd" clip-rule="evenodd" d="M30.2214 35.0006V18.2233H36.999V35.0006H30.2214Z" fill="white"/>
<path fill-rule="evenodd" clip-rule="evenodd" d="M10.2217 29.2229H17.1104V29.334H10.2217V29.2229Z" fill="white"/>
<path fill-rule="evenodd" clip-rule="evenodd" d="M16.9993 10.0013L16.9993 29.2229L10.2217 29.2229L10.2217 10.0013L16.9993 10.0013Z" fill="white"/>
<path fill-rule="evenodd" clip-rule="evenodd" d="M19.9992 10.1124H10.2217V10.0012H19.9992V10.1124Z" fill="white"/>
<rect x="14" y="45.5558" width="6.77759" height="2.7777" fill="white"/>
<path fill-rule="evenodd" clip-rule="evenodd" d="M29.892 55.8889H37.9913L37.9914 55.8889L32.6708 42.5873L25.6885 45.3802L29.892 55.8889Z" fill="white"/>
<path fill-rule="evenodd" clip-rule="evenodd" d="M20.7765 48.4447H22.0073L18.4353 39.5147L17.3743 39.9391L20.7765 48.4447Z" fill="white"/>
<path fill-rule="evenodd" clip-rule="evenodd" d="M25.9879 43.4957L32.4314 37.0522L30.2687 34.8895L23.9912 41.167L24.2125 41.7202L25.9879 43.4957Z" fill="white"/>
<path fill-rule="evenodd" clip-rule="evenodd" d="M37.1103 37.9145V38.1577L32.6017 42.6663L27.6064 37.671L32.2366 33.0408L37.1103 37.9145Z" fill="white"/>
<path fill-rule="evenodd" clip-rule="evenodd" d="M21.6676 0L16.9219 4.74572L22.3662 10.19L27.3326 5.22363L22.1089 0H21.6676Z" fill="white"/>
<path fill-rule="evenodd" clip-rule="evenodd" d="M5.22342 0L-0.000183105 5.22361L4.96012 10.1839L10.4044 4.73962L5.6648 0H5.22342Z" fill="white"/>
</svg>
